<svg width="400" height="400" viewBox="0 0 400 400" xmlns="http://www.w3.org/2000/svg">
  <defs>
    <linearGradient id="bodyS24" x1="0" y1="0" x2="1" y2="1">
      <stop offset="0" stop-color="#4b4b55"/>
      <stop offset="0.5" stop-color="#2c2c34"/>
      <stop offset="1" stop-color="#151519"/>
    </linearGradient>
    <linearGradient id="rimS24" x1="0" y1="0" x2="1" y2="1">
      <stop offset="0" stop-color="#5a5a64"/>
      <stop offset="1" stop-color="#26262c"/>
    </linearGradient>
    <linearGradient id="lensS24" x1="0" y1="0" x2="1" y2="1">
      <stop offset="0" stop-color="#6d7fb8"/>
      <stop offset="0.55" stop-color="#22242e"/>
      <stop offset="1" stop-color="#08080a"/>
    </linearGradient>
    <linearGradient id="sheenS24" x1="0" y1="0" x2="0" y2="1">
      <stop offset="0" stop-color="#ffffff" stop-opacity="0.35"/>
      <stop offset="1" stop-color="#ffffff" stop-opacity="0"/>
    </linearGradient>
  </defs>

  <ellipse cx="200" cy="352" rx="82" ry="12" fill="#000000" opacity="0.10"/>

  <!-- body: flatter, squared-off titanium frame -->
  <rect x="108" y="40" width="184" height="312" rx="30" fill="url(#rimS24)"/>
  <rect x="114" y="46" width="172" height="300" rx="24" fill="url(#bodyS24)"/>
  <rect x="126" y="52" width="42" height="64" rx="18" fill="url(#sheenS24)"/>

  <!-- individually-ringed camera lenses, Ultra-style vertical column -->
  <circle cx="163" cy="88" r="22" fill="url(#rimS24)"/>
  <circle cx="163" cy="88" r="17" fill="url(#lensS24)"/>
  <circle cx="158" cy="82" r="4.5" fill="#ffffff" opacity="0.5"/>

  <circle cx="163" cy="140" r="26" fill="url(#rimS24)"/>
  <circle cx="163" cy="140" r="20.5" fill="url(#lensS24)"/>
  <circle cx="157" cy="133" r="5" fill="#ffffff" opacity="0.5"/>

  <circle cx="163" cy="196" r="22" fill="url(#rimS24)"/>
  <circle cx="163" cy="196" r="17" fill="url(#lensS24)"/>
  <circle cx="158" cy="190" r="4.5" fill="#ffffff" opacity="0.5"/>

  <circle cx="163" cy="244" r="18" fill="url(#rimS24)"/>
  <circle cx="163" cy="244" r="13.5" fill="url(#lensS24)"/>
  <circle cx="159" cy="239" r="3.5" fill="#ffffff" opacity="0.5"/>

  <rect x="150" y="266" width="26" height="9" rx="4.5" fill="#0c0c0e"/>

  <!-- S-Pen slot -->
  <rect x="196" y="349" width="34" height="5" rx="2.5" fill="#0c0c0e"/>

  <!-- side buttons -->
  <rect x="291" y="128" width="6" height="34" rx="3" fill="#5a5a64"/>
  <rect x="291" y="170" width="6" height="20" rx="3" fill="#5a5a64"/>
</svg>
